<?xml version="1.0" encoding="utf-8"?>
<!-- Generator: Adobe Illustrator 25.3.1, SVG Export Plug-In . SVG Version: 6.00 Build 0)  -->
<svg version="1.1" id="Capa_1" xmlns="http://www.w3.org/2000/svg" xmlns:xlink="http://www.w3.org/1999/xlink" x="0px" y="0px"
	 viewBox="0 0 362.7 362.7" style="enable-background:new 0 0 362.7 362.7;" xml:space="preserve">
<style type="text/css">
	.st0{fill:#FFFFFF;}
</style>
<g>
	<g>
		<g>
			<g>
				<path class="st0" d="M309.3,133.2c-6,0-11.6,1.8-16.2,4.9c-4-11.4-14.8-19.5-27.6-19.5c-6,0-11.6,1.8-16.2,4.9
					c-4-11.4-14.8-19.5-27.6-19.5c-12.7,0-23.6,8.2-27.6,19.5c-4.6-3.1-10.2-4.9-16.2-4.9c-16.1,0-29.2,13.1-29.2,29.2v33.5
					l-14.2,14.2c-9.6,9.7-15,22.5-15,36.1v22.1c0,13.6,5.3,26.5,15,36.1l29.2,29.2c21.3,21.3,49.7,33.1,79.9,33.1
					c52.3,0,94.9-42.6,94.9-94.9v-94.9C338.5,146.3,325.4,133.2,309.3,133.2z M323.9,257.3c0,44.3-36,80.3-80.3,80.3
					c-26.3,0-51-10.2-69.6-28.8l-29.2-29.2c-6.9-6.9-10.7-16.1-10.7-25.8v-22.1c0-9.8,3.8-18.9,10.7-25.8l3.9-3.9v11.6
					c0,4,3.3,7.3,7.3,7.3c4,0,7.3-3.3,7.3-7.3v-29.2c0,0,0,0,0,0v-36.5c0-8,6.5-14.6,14.6-14.6s14.6,6.6,14.6,14.6v21.9
					c0,4,3.3,7.3,7.3,7.3c4,0,7.3-3.3,7.3-7.3v-36.5c0-8,6.5-14.6,14.6-14.6s14.6,6.6,14.6,14.6v36.5c0,4,3.3,7.3,7.3,7.3
					s7.3-3.3,7.3-7.3v-21.9c0-8,6.5-14.6,14.6-14.6s14.6,6.6,14.6,14.6v21.9c0,4,3.3,7.3,7.3,7.3s7.3-3.3,7.3-7.3v-7.3
					c0-8,6.5-14.6,14.6-14.6s14.6,6.6,14.6,14.6V257.3z"/>
			</g>
		</g>
	</g>
	<g>
		<path class="st0" d="M113.1,284.3H89.7c-7,0-12.7-5.7-12.7-12.7V70c0-7,5.7-12.7,12.7-12.7h201.6c7,0,12.7,5.7,12.7,12.7v48.3
			c0,3.2-2.6,5.8-5.8,5.8c-3.2,0-5.8-2.6-5.8-5.8V70c0-0.5-0.5-1-1-1H89.7c-0.5,0-1,0.5-1,1v201.6c0,0.5,0.5,1,1,1h23.4
			c3.2,0,5.8,2.6,5.8,5.8C118.9,281.7,116.3,284.3,113.1,284.3z"/>
	</g>
	<g>
		<path class="st0" d="M62.4,263c-7,0-12.7-5.7-12.7-12.7V48.7c0-7,5.7-12.7,12.7-12.7H264c7,0,12.7,5.7,12.7,12.7
			c0,3.2-2.6,5.8-5.8,5.8s-5.8-2.6-5.8-5.8c0-0.5-0.5-1-1-1H62.4c-0.5,0-1,0.5-1,1v201.6c0,0.5,0.5,1,1,1c3.2,0,5.8,2.6,5.8,5.8
			C68.2,260.4,65.6,263,62.4,263z"/>
	</g>
	<g>
		<path class="st0" d="M36.8,237.4c-7,0-12.7-5.7-12.7-12.7V23.1c0-7,5.7-12.7,12.7-12.7h201.6c7,0,12.7,5.7,12.7,12.7
			c0,3.2-2.6,5.8-5.8,5.8c-3.2,0-5.8-2.6-5.8-5.8c0-0.5-0.5-1-1-1H36.8c-0.5,0-1,0.5-1,1v201.6c0,0.5,0.5,1,1,1
			c3.2,0,5.8,2.6,5.8,5.8S40,237.4,36.8,237.4z"/>
	</g>
</g>
</svg>
