<?xml version="1.0" encoding="utf-8"?>
<!-- Generator: Adobe Illustrator 25.3.1, SVG Export Plug-In . SVG Version: 6.00 Build 0)  -->
<svg version="1.1" id="Layer_1" xmlns="http://www.w3.org/2000/svg" xmlns:xlink="http://www.w3.org/1999/xlink" x="0px" y="0px"
	 viewBox="0 0 512 512" style="enable-background:new 0 0 512 512;" xml:space="preserve">
<style type="text/css">
	.st0{fill:#FFFFFF;}
</style>
<g>
	<g id="filled_outline">
		<path class="st0" d="M499.7,284.8H466c-30.4-28.9-78.2-28.9-108.6,0h-70.3c-14.3,0-26.5,10.4-28.9,24.5l-63.9-21.3
			c-15.6-5.2-32.4,3.2-37.6,18.8c-1,3-1.5,6.2-1.5,9.4v0.5c0,10.2,5.2,19.7,13.8,25.2l127.2,81c16.8,10.7,37.3,13.9,56.5,8.8
			L464,402.3h35.7c4,0,7.3-3.3,7.3-7.3V292.1C507,288,503.7,284.8,499.7,284.8L499.7,284.8z M492.3,387.7H463
			c-0.6,0-1.3,0.1-1.9,0.2L349,417.4c-15.3,4-31.6,1.5-44.9-7l-127.2-81c-4.4-2.8-7-7.6-7-12.8v-0.5c0-8.3,6.7-15,15-15.1
			c1.6,0,3.3,0.3,4.8,0.8l70.3,23.5c4.5,11,15.2,18.1,27.1,18.1h73.3c4,0,7.3-3.3,7.3-7.3s-3.3-7.3-7.3-7.3h-73.3
			c-6.7,0-12.6-4.5-14.2-11v0c-2-7.9,2.8-15.8,10.6-17.8c1.2-0.3,2.4-0.4,3.6-0.4h73.3c1.9,0,3.8-0.8,5.2-2.1l0.7-0.7
			c25.1-25,65.7-25,90.7,0l0.7,0.7c1.4,1.4,3.2,2.1,5.2,2.1h29.3V387.7z"/>
	</g>
	<g id="filled_outline_1_">
		<path class="st0" d="M12.3,227.2H46c30.4,28.9,78.2,28.9,108.6,0h70.3c14.3,0,26.5-10.4,28.9-24.5l63.9,21.3
			c15.6,5.2,32.4-3.2,37.6-18.8c1-3,1.5-6.2,1.5-9.4v-0.5c0-10.2-5.2-19.7-13.8-25.2l-127.2-81c-16.8-10.7-37.3-13.9-56.5-8.8
			L48,109.7H12.3c-4,0-7.3,3.3-7.3,7.3v102.9C5,224,8.3,227.2,12.3,227.2L12.3,227.2z M19.7,124.3H49c0.6,0,1.3-0.1,1.9-0.2
			L163,94.6c15.3-4,31.6-1.5,44.9,7l127.2,81c4.4,2.8,7,7.6,7,12.8v0.5c0,8.3-6.7,15-15,15.1c-1.6,0-3.3-0.3-4.8-0.8l-70.3-23.5
			c-4.5-11-15.2-18.1-27.1-18.1h-73.3c-4,0-7.3,3.3-7.3,7.3s3.3,7.3,7.3,7.3h73.3c6.7,0,12.6,4.5,14.2,11v0
			c2,7.9-2.8,15.8-10.6,17.8c-1.2,0.3-2.4,0.4-3.6,0.4h-73.3c-1.9,0-3.8,0.8-5.2,2.1l-0.7,0.7c-25.1,25-65.7,25-90.7,0l-0.7-0.7
			c-1.4-1.4-3.2-2.1-5.2-2.1H19.7V124.3z"/>
	</g>
</g>
</svg>
