<?xml version="1.0" encoding="utf-8"?>
<!-- Generator: Adobe Illustrator 25.3.1, SVG Export Plug-In . SVG Version: 6.00 Build 0)  -->
<svg version="1.1" id="Capa_1" xmlns="http://www.w3.org/2000/svg" xmlns:xlink="http://www.w3.org/1999/xlink" x="0px" y="0px"
	 viewBox="0 0 512 512" style="enable-background:new 0 0 512 512;" xml:space="preserve">
<style type="text/css">
	.st0{fill:#FFFFFF;}
</style>
<g>
	<g>
		<path class="st0" d="M490.4,304.6l-10.8-6.6l10.8-6.6c28.7-17.5,28.7-47.4,0-64.9l-10.8-6.6l10.8-6.6c28.7-17.6,28.6-59.3,0-76.8
			L279.4,6.7c-14.5-8.8-32.4-8.8-46.9,0c0,0,0,0,0,0L21.6,136.5c-28.7,17.6-28.7,59.3,0,76.7l10.8,6.6l-10.8,6.6
			c-28.6,17.5-28.8,47.4,0,64.9l10.8,6.6l-10.8,6.6c-28.7,17.6-28.7,53.4,0,70.9l211,129.8c14.3,8.7,32.3,8.9,47,0l211-129.8
			C519.2,358,519.2,322.2,490.4,304.6z M37.2,162L248.2,32.2l0,0c4.8-2.9,10.8-2.9,15.6,0l211.1,129.8c9.5,5.8,9.6,19.7,0,25.6
			c-15.5,9.5-204.2,125.6-211,129.8c-4.8,2.9-10.8,2.9-15.6,0c-9.4-5.8-202.5-124.6-211-129.8C27.6,181.8,27.6,167.9,37.2,162z
			 M30,258.9c0-0.5,1.3-3.3,7.2-6.9L61,237.5l171.5,105.5c14.3,8.8,32.3,8.9,47,0L451,237.5l23.8,14.5c5.8,3.6,7.2,6.4,7.2,6.9
			c0,0.5-1.3,3.3-7.2,6.9c-15.5,9.5-204.2,125.6-211,129.8c-4.8,2.9-10.8,2.9-15.6,0c-6.8-4.2-195.3-120.2-211-129.8
			C31.4,262.2,30,259.4,30,258.9z M474.8,350l-211,129.8c-4.8,2.9-10.8,2.9-15.6,0l-211-129.8c-9.5-5.8-9.5-13.9,0-19.8L61,315.6
			l171.5,105.5c14.4,8.8,32.3,8.9,47,0L451,315.6l23.8,14.5c4.6,2.8,7.2,6.4,7.2,9.9S479.4,347.1,474.8,350z"/>
	</g>
</g>
</svg>
