<?xml version="1.0" encoding="utf-8"?>
<!-- Generator: Adobe Illustrator 25.3.1, SVG Export Plug-In . SVG Version: 6.00 Build 0)  -->
<svg version="1.1" id="Capa_1" xmlns="http://www.w3.org/2000/svg" xmlns:xlink="http://www.w3.org/1999/xlink" x="0px" y="0px"
	 viewBox="0 0 512 512" style="enable-background:new 0 0 512 512;" xml:space="preserve">
<style type="text/css">
	.st0{fill:#FFFFFF;}
</style>
<g>
	<g>
		<path class="st0" d="M497,403l-37.9-214.7c-7.9-44.4-46.3-76.7-91.4-76.7H314c8.1-11.5,12.9-25.6,12.9-40.7
			C326.9,31.8,295.1,0,256,0s-70.9,31.8-70.9,70.9c0,15.1,4.8,29.2,12.9,40.7h-53.7c-45.1,0-83.6,32.3-91.4,76.7L15,403
			c-4.8,27.1,2.6,54.7,20.3,75.8c17.7,21.1,43.6,33.2,71.1,33.2h299.2c27.5,0,53.4-12.1,71.1-33.2C494.4,457.7,501.8,430.1,497,403z
			 M256,30.2c22.4,0,40.7,18.3,40.7,40.7s-18.3,40.7-40.7,40.7s-40.7-18.3-40.7-40.7S233.6,30.2,256,30.2z M453.6,459.4
			c-11.9,14.2-29.4,22.4-48,22.4H106.4c-18.6,0-36-8.2-48-22.4s-16.9-32.9-13.7-51.1l37.9-214.7c5.3-30,31.2-51.7,61.7-51.7h223.4
			c30.4,0,56.4,21.8,61.7,51.7l37.9,214.7C470.5,426.5,465.5,445.2,453.6,459.4z"/>
	</g>
</g>
<g>
	<g>
		<path class="st0" d="M206.3,311.8l37.9-39.1c5.8-6,5.6-15.6-0.4-21.4c-6-5.8-15.6-5.6-21.4,0.4l-42.4,43.8v-33.3
			c0-8.3-6.8-15.1-15.1-15.1s-15.1,6.8-15.1,15.1v99.3c0,8.3,6.8,15.1,15.1,15.1s15.1-6.8,15.1-15.1v-33.3l42.4,43.8
			c3,3.1,6.9,4.6,10.9,4.6c3.8,0,7.6-1.4,10.5-4.3c6-5.8,6.2-15.4,0.4-21.4L206.3,311.8z"/>
	</g>
</g>
<g>
	<g>
		<path class="st0" d="M347,301h-22.7c-8.3,0-15.1,6.8-15.1,15.1s6.8,15.1,15.1,15.1h7.3c-1.4,8.6-8.9,15.1-17.9,15.1
			c-10,0-18.2-8.1-18.2-18.2v-32.7c0-10,8.1-18.2,18.2-18.2c5.6,0,10.9,2.6,14.3,7c5.1,6.6,14.6,7.8,21.2,2.6
			c6.6-5.1,7.8-14.6,2.6-21.2c-9.2-11.8-23.2-18.6-38.2-18.6c-26.7,0-48.4,21.7-48.4,48.4v32.7c0,26.7,21.7,48.4,48.4,48.4
			s48.4-21.7,48.4-48.4v-12.1C362.1,307.7,355.4,301,347,301z"/>
	</g>
</g>
</svg>
