<?xml version="1.0" encoding="utf-8"?>
<!-- Generator: Adobe Illustrator 25.3.1, SVG Export Plug-In . SVG Version: 6.00 Build 0)  -->
<svg version="1.1" id="Icons" xmlns="http://www.w3.org/2000/svg" xmlns:xlink="http://www.w3.org/1999/xlink" x="0px" y="0px"
	 viewBox="0 0 512 512" style="enable-background:new 0 0 512 512;" xml:space="preserve">
<style type="text/css">
	.st0{fill:#FFFFFF;}
</style>
<path class="st0" d="M491.2,401.3H20.8c-3.8,0-6.9-3.1-6.9-6.9V117.6c0-3.8,3.1-6.9,6.9-6.9h470.5c3.8,0,6.9,3.1,6.9,6.9v276.8
	C498.2,398.2,495.1,401.3,491.2,401.3z M27.7,387.5h456.6V124.5H27.7V387.5z"/>
<path class="st0" d="M422.1,373.6H89.9c-3.8,0-6.9-3.1-6.9-6.9c0-19.1-15.5-34.6-34.6-34.6c-3.8,0-6.9-3.1-6.9-6.9V186.8
	c0-3.8,3.1-6.9,6.9-6.9c19.1,0,34.6-15.5,34.6-34.6c0-3.8,3.1-6.9,6.9-6.9h332.1c3.8,0,6.9,3.1,6.9,6.9c0,19.1,15.5,34.6,34.6,34.6
	c3.8,0,6.9,3.1,6.9,6.9v138.4c0,3.8-3.1,6.9-6.9,6.9c-19.1,0-34.6,15.5-34.6,34.6C429,370.5,425.9,373.6,422.1,373.6z M96.4,359.8
	h319.2c3.1-21.3,19.8-38,41-41V193.2c-21.3-3.1-38-19.8-41-41H96.4c-3.1,21.3-19.8,38-41,41v125.5C76.6,321.8,93.3,338.5,96.4,359.8
	z"/>
<path class="st0" d="M276.8,332.1h-41.5c-19.1,0-34.6-15.5-34.6-34.6h13.8c0,11.5,9.3,20.8,20.8,20.8h41.5
	c11.5,0,20.8-9.3,20.8-20.8v-13.8c0-11.5-9.3-20.8-20.8-20.8h-41.5c-19.1,0-34.6-15.5-34.6-34.6v-13.8c0-19.1,15.5-34.6,34.6-34.6
	h41.5c19.1,0,34.6,15.5,34.6,34.6h-13.8c0-11.5-9.3-20.8-20.8-20.8h-41.5c-11.5,0-20.8,9.3-20.8,20.8v13.8
	c0,11.5,9.3,20.8,20.8,20.8h41.5c19.1,0,34.6,15.5,34.6,34.6v13.8C311.4,316.6,295.9,332.1,276.8,332.1z"/>
<path class="st0" d="M249.1,166.1h13.8v179.9h-13.8V166.1z"/>
<path class="st0" d="M408.2,283.7c-15.3,0-27.7-12.4-27.7-27.7s12.4-27.7,27.7-27.7c15.3,0,27.7,12.4,27.7,27.7
	S423.5,283.7,408.2,283.7z M408.2,242.2c-7.6,0-13.8,6.2-13.8,13.8c0,7.6,6.2,13.8,13.8,13.8s13.8-6.2,13.8-13.8
	C422.1,248.4,415.9,242.2,408.2,242.2z"/>
<path class="st0" d="M103.8,283.7c-15.3,0-27.7-12.4-27.7-27.7s12.4-27.7,27.7-27.7s27.7,12.4,27.7,27.7S119.1,283.7,103.8,283.7z
	 M103.8,242.2c-7.6,0-13.8,6.2-13.8,13.8c0,7.6,6.2,13.8,13.8,13.8s13.8-6.2,13.8-13.8C117.6,248.4,111.4,242.2,103.8,242.2z"/>
</svg>
