<?xml version="1.0" encoding="utf-8"?>
<!-- Generator: Adobe Illustrator 25.3.1, SVG Export Plug-In . SVG Version: 6.00 Build 0)  -->
<svg version="1.1" id="Capa_1" xmlns="http://www.w3.org/2000/svg" xmlns:xlink="http://www.w3.org/1999/xlink" x="0px" y="0px"
	 viewBox="0 0 416.3 416.3" style="enable-background:new 0 0 416.3 416.3;" xml:space="preserve">
<style type="text/css">
	.st0{fill:#FFFFFF;}
</style>
<g>
	<g>
		<path class="st0" d="M348.8,261.7c-0.6-0.6-1.3-1.2-2.1-1.6c-10.4-6.5-22.2-9.8-34-9.8c-16.4,0-32.7,6.2-45.2,18.7l-11.3,11.3V128
			c0-17.6-14.4-32-32-32s-32,14.4-32,32v70.4c-5.8-7.2-14.6-11.8-24.6-11.8c-6.9,0-13.3,2.3-18.5,6l-68.9,39.9
			c-9.5,5.6-15.9,15.8-15.9,27.6v52.6c0,57.2,46.4,103.6,103.6,103.6c27.7,0,52.8-10.9,71.4-28.7l0,0.1l1.8-1.8c0,0,0.1-0.1,0.1-0.1
			l107.7-107.8C353.3,273.6,353.3,266.3,348.8,261.7z M228.1,376c-16.4,15.6-37.8,24.2-60.4,24.2c-48.3,0-87.6-39.3-87.6-87.6v-52.6
			c0-5.6,3-10.7,8-13.7l70.1-40.8c1.9-1.4,5.1-3,9.2-3c6.4,0,10.4,3.7,12.2,6l28.4,34.8V128c0-8.8,7.2-16,16-16s16,7.2,16,16v160
			c0,6.8,4.3,12.6,10.4,14.8c2.5,1,5.4,0.3,7.3-1.6l20.9-20.9c9.1-9.1,21.1-14,33.9-14c7.2,0,14.3,1.6,20.7,4.7L228.1,376z"/>
	</g>
</g>
<g>
	<g>
		<rect x="216.1" class="st0" width="16" height="64"/>
	</g>
</g>
<g>
	<g>
		<rect x="148.3" y="28.1" transform="matrix(0.7071 -0.7071 0.7071 0.7071 3.2653 128.0936)" class="st0" width="16" height="64"/>
	</g>
</g>
<g>
	<g>
		<rect x="96.1" y="120" class="st0" width="64" height="16"/>
	</g>
</g>
<g>
	<g>
		<rect x="260" y="52.1" transform="matrix(0.7071 -0.7071 0.7071 0.7071 43.0107 224.0919)" class="st0" width="64" height="16"/>
	</g>
</g>
<g>
	<g>
		<rect x="288.1" y="120" class="st0" width="64" height="16"/>
	</g>
</g>
</svg>
