<?xml version="1.0" encoding="utf-8"?>
<!-- Generator: Adobe Illustrator 25.3.1, SVG Export Plug-In . SVG Version: 6.00 Build 0)  -->
<svg version="1.1" id="Capa_1" xmlns="http://www.w3.org/2000/svg" xmlns:xlink="http://www.w3.org/1999/xlink" x="0px" y="0px"
	 viewBox="0 0 142.7 142.7" style="enable-background:new 0 0 142.7 142.7;" xml:space="preserve">
<style type="text/css">
	.st0{fill:#FFFFFF;}
</style>
<g>
	<path class="st0" d="M142.7,51.5c0,4.3-0.7,8.5-2,12.6C134,93.8,76.9,130,74.5,131.5c-0.5,0.3-1.1,0.5-1.7,0.5
		c-0.6,0-1.2-0.2-1.7-0.5c-1.2-0.7-28.6-18-48-38.6c-1.2-1.2-1.1-3.2,0.1-4.4c1.3-1.2,3.2-1.1,4.4,0.1
		c16.2,17.1,38.9,32.4,45.1,36.5c9.5-6.2,56.3-37.9,61.8-62.7c1.2-3.8,1.8-7.3,1.8-11c0-12.6-6.9-24.2-17.9-30.3
		c-5.1-2.8-10.9-4.3-16.7-4.3c-10.3,0-20,4.6-26.6,12.5c-0.6,0.7-1.5,1.1-2.4,1.1l0,0c-0.9,0-1.8-0.4-2.4-1.1
		c-6.6-8-16.3-12.5-26.7-12.5c-5.8,0-11.6,1.5-16.7,4.3C16,27.3,9.2,38.9,9.2,51.5c0,3.6,0.6,7.2,1.7,10.7c0.7,3.2,2.2,6.6,4.1,10
		h20.9L42.6,61c0.5-0.9,1.5-1.5,2.6-1.5c1-0.1,2.1,0.5,2.7,1.4l10.9,16.8L71,44.8c0.5-1.2,1.6-2,2.9-2h0c1.3,0,2.5,0.8,2.9,2
		L87,72.2h18.1c1.7,0,3.1,1.4,3.1,3.1c0,1.7-1.4,3.1-3.1,3.1H84.8c-1.3,0-2.5-0.8-2.9-2l-8-21.5L62.5,85.7c-0.4,1.1-1.4,1.9-2.6,2
		c-0.1,0-0.2,0-0.3,0c-1,0-2-0.5-2.6-1.4L45.4,68.5l-5,8.4c-0.6,0.9-1.6,1.5-2.7,1.5H3.1C1.4,78.4,0,77,0,75.3
		c0-1.7,1.4-3.1,3.1-3.1h4.8c-1.4-2.9-2.5-5.7-3.1-8.4c-1.3-3.8-1.9-8-1.9-12.3C2.9,36.6,11,22.9,24,15.7c6-3.3,12.9-5.1,19.7-5.1
		c11,0,21.4,4.4,29,12.1c7.7-7.7,18-12.1,29-12.1c6.9,0,13.7,1.7,19.7,5.1C134.6,22.9,142.7,36.6,142.7,51.5z"/>
</g>
</svg>
